{"title":"Gozetleme Kulesi 2012 XviD NOVA.avi","uid":8730511,"size":779307799,"categoryP":"video","categoryS":"movies","magnet":"?xt=urn:btih:d34da6c0002caec2b145d99e29e5306408b620e1&amp;dn=Gozetleme+Kulesi+2012+XviD+NOVA.avi&amp;tr=udp%3A%2F%2Ftracker.openbittorrent.com%3A80&amp;tr=udp%3A%2F%2Fopen.demonii.com%3A1337&amp;tr=udp%3A%2F%2Ftracker.coppersurfer.tk%3A6969&amp;tr=udp%3A%2F%2Fexodus.desync.com%3A6969","seeders":1,"leechers":0,"uploader":null,"files":1,"time":1374596012,"description":"A man and a woman seeking refuge from the world: Nihat at a remote forest fire tower, Seher in her room at a rural bus station. When their lives collide, each now has to fight their battle of conscience before the other. \n &lt;a href=&quot;\nhttp://www.imdb.com/title/tt2191332/&quot; rel=&quot;nofollow&quot; target=&quot;_NEW&quot;&gt;\nhttp://www.imdb.com/title/tt2191332/&lt;/a&gt;\n\nGeneral\nUnique ID                                : 240163898574184638295100909539186134992 (0xB4ADE266E3E54248BE479646149F4FD0)\nComplete name                            : Gozetleme Kulesi 2012 XviD NOVA.avi\nFormat                                   : Matroska\nFormat version                           : Version 1\nFile size                                : 743 MiB\nDuration                                 : 1h 35mn\nOverall bit rate                         : 1 090 Kbps\nEncoded date                             : UTC 2013-04-17 12:24:43\nWriting application                      : mkvmerge v2.5.2 ('Stranger in your Soul') built on Feb 28 2009 18:58:17\nWriting library                          : libebml v0.7.7 + libmatroska v0.8.1\n\nVideo\nID                                       : 1\nFormat                                   : MPEG-4 Visual\nFormat profile                           : Advanced Simple@L5\nFormat settings, BVOP                    : Yes\nFormat settings, QPel                    : No\nFormat settings, GMC                     : No warppoints\nFormat settings, Matrix                  : Custom\nCodec ID                                 : XVID\nCodec ID/Hint                            : XviD\nDuration                                 : 1h 35mn\nBit rate                                 : 876 Kbps\nWidth                                    : 672 pixels\nHeight                                   : 368 pixels\nDisplay aspect ratio                     : 1.85:1\nFrame rate                               : 25.000 fps\nColor space                              : YUV\nChroma subsampling                       : 4:2:0\nBit depth                                : 8 bits\nScan type                                : Progressive\nCompression mode                         : Lossy\nBits/(Pixel*Frame)                       : 0.142\nStream size                              : 597 MiB (80%)\nWriting library                          : XviD 1.1.2 (UTC 2006-11-01)\nDefault                                  : Yes\nForced                                   : No\n\nAudio\nID                                       : 2\nFormat                                   : MPEG Audio\nFormat version                           : Version 1\nFormat profile                           : Layer 3\nMode                                     : Joint stereo\nCodec ID                                 : A_MPEG/L3\nCodec ID/Hint                            : MP3\nDuration                                 : 1h 35mn\nBit rate mode                            : Constant\nBit rate                                 : 192 Kbps\nChannel(s)                               : 2 channels\nSampling rate                            : 48.0 KHz\nCompression mode                         : Lossy\nStream size                              : 131 MiB (18%)\nWriting library                          : LAME3.98.2\nDefault                                  : Yes\nForced                                   : No\n\nText\nID                                       : 3\nFormat                                   : UTF-8\nCodec ID                                 : S_TEXT/UTF8\nCodec ID/Info                            : UTF-8 Plain Text\nDefault                                  : Yes\nForced                                   : No","torrent":{"xt":"urn:btih:d34da6c0002caec2b145d99e29e5306408b620e1","amp;dn":"Gozetleme+Kulesi+2012+XviD+NOVA.avi","amp;tr":["udp%3A%2F%2Ftracker.openbittorrent.com%3A80","udp%3A%2F%2Fopen.demonii.com%3A1337","udp%3A%2F%2Ftracker.coppersurfer.tk%3A6969","udp%3A%2F%2Fexodus.desync.com%3A6969"],"infoHash":"d34da6c0002caec2b145d99e29e5306408b620e1","infoHashBuffer":{"type":"Buffer","data":[211,77,166,192,0,44,174,194,177,69,217,158,41,229,48,100,8,182,32,225]},"announce":[],"urlList":[]}}